<svg width="20" height="21" viewBox="0 0 20 21" fill="none" xmlns="http://www.w3.org/2000/svg">
<path d="M5.80078 3.74829H2.2251C1.74185 3.74829 1.3501 4.14004 1.3501 4.62329V15.4275C1.3501 15.9107 1.74185 16.3025 2.2251 16.3025H7.17356C7.84278 16.3025 8.47595 16.6057 8.89546 17.1271C9.1134 17.398 9.55078 17.2439 9.55078 16.8962V7.49829C9.55078 5.42722 7.87185 3.74829 5.80078 3.74829Z" stroke="#525866" stroke-width="1.33" stroke-linecap="round"/>
<path d="M17.7515 4.90442V4.62329C17.7515 4.14004 17.3597 3.74829 16.8765 3.74829H13.3008C11.2297 3.74829 9.55078 5.42722 9.55078 7.49829V16.8962C9.55078 17.2439 9.98816 17.398 10.2061 17.1271V17.1271C10.6256 16.6057 11.2588 16.3025 11.928 16.3025H16.8765C17.3597 16.3025 17.7515 15.9107 17.7515 15.4275V13.6952" stroke="#525866" stroke-width="1.33" stroke-linecap="round"/>
<path fill-rule="evenodd" clip-rule="evenodd" d="M12.5954 10.0276C12.6587 9.86304 12.8861 9.86304 12.9494 10.0276L13.2288 10.7579C13.2803 10.8921 13.3837 10.9986 13.5143 11.0515L14.2234 11.3388C14.3837 11.4038 14.3837 11.6379 14.2234 11.7029L13.5143 11.9902C13.3837 12.0431 13.2802 12.1495 13.2288 12.2838L12.9494 13.013C12.8862 13.1779 12.6586 13.1779 12.5954 13.013L12.316 12.2838C12.2645 12.1495 12.1611 12.0431 12.0305 11.9902L11.3214 11.7029C11.1611 11.6379 11.1611 11.4038 11.3214 11.3388L12.0305 11.0515C12.1611 10.9986 12.2645 10.8921 12.316 10.7579L12.5954 10.0276ZM16.6689 6.878C16.7743 6.60317 17.1529 6.60317 17.2583 6.878L17.7249 8.09343C17.8107 8.31703 17.9823 8.49445 18.1997 8.58276L19.3826 9.06262C19.6498 9.17102 19.6498 9.56037 19.3826 9.66876L18.1997 10.1476C17.9824 10.2358 17.8108 10.4134 17.7249 10.6369L17.2583 11.8534C17.1529 12.1282 16.7743 12.1282 16.6689 11.8534L16.2023 10.6369C16.1165 10.4134 15.9449 10.2358 15.7275 10.1476L14.5447 9.66876C14.2774 9.56037 14.2774 9.17102 14.5447 9.06262L15.7275 8.58276C15.9449 8.49445 16.1166 8.31703 16.2023 8.09343L16.6689 6.878Z" fill="#525866"/>
<line x1="4.44674" y1="8.05277" x2="6.40409" y2="8.05277" stroke="#525866" stroke-width="1.33" stroke-linecap="round"/>
<line x1="4.44674" y1="11.4192" x2="6.40409" y2="11.4192" stroke="#525866" stroke-width="1.33" stroke-linecap="round"/>
</svg>
