<svg width="20" height="21" viewBox="0 0 20 21" fill="none" xmlns="http://www.w3.org/2000/svg">
<path d="M5.83333 3V18M3.33333 3H8.33333C8.79357 3 9.16667 3.3731 9.16667 3.83333V17.1667C9.16667 17.6269 8.79357 18 8.33333 18H3.33333C2.8731 18 2.5 17.6269 2.5 17.1667V3.83333C2.5 3.3731 2.8731 3 3.33333 3ZM17 16.25C17.1667 16.6667 16.9167 17.1667 16.5 17.3333L14.9167 17.9167C14.5 18.0833 14 17.8333 13.8333 17.4167L9.25 4.75C9.08333 4.33333 9.33333 3.83333 9.75 3.66667L11.3333 3.08333C11.75 2.91667 12.25 3.16667 12.4167 3.58333L17 16.25Z" stroke="white" stroke-width="1.33333" stroke-linecap="round" stroke-linejoin="round"/>
</svg>
