<svg width="20" height="21" viewBox="0 0 20 21" fill="none" xmlns="http://www.w3.org/2000/svg">
<path d="M3.33331 18.8334H15C15.442 18.8334 15.8659 18.6578 16.1785 18.3453C16.4911 18.0327 16.6666 17.6088 16.6666 17.1667V6.33341L12.5 2.16675H4.99998C4.55795 2.16675 4.13403 2.34234 3.82147 2.6549C3.50891 2.96746 3.33331 3.39139 3.33331 3.83341V5.50008M11.6666 2.16675V5.50008C11.6666 5.94211 11.8422 6.36603 12.1548 6.67859C12.4674 6.99115 12.8913 7.16675 13.3333 7.16675H16.6666" stroke="#475069" stroke-width="1.33333" stroke-linecap="round" stroke-linejoin="round"/>
<path fill-rule="evenodd" clip-rule="evenodd" d="M2.29783 11.9817C2.36351 11.8171 2.59928 11.8171 2.66497 11.9817L2.95465 12.7122C3.00805 12.8464 3.11535 12.9529 3.25069 13.0059L3.98604 13.2932C4.15231 13.3583 4.15231 13.5924 3.98604 13.6575L3.25069 13.9448C3.11534 13.9978 3.00803 14.1042 2.95465 14.2385L2.66497 14.968C2.59939 15.1329 2.36341 15.1329 2.29783 14.968L2.00815 14.2385C1.95476 14.1042 1.84746 13.9978 1.7121 13.9448L0.976758 13.6575C0.810482 13.5924 0.810482 13.3583 0.976758 13.2932L1.7121 13.0059C1.84744 12.9529 1.95474 12.8464 2.00815 12.7122L2.29783 11.9817ZM6.52207 8.83118C6.63136 8.55627 7.02396 8.55627 7.13326 8.83118L7.61712 10.047C7.70604 10.2706 7.88408 10.4481 8.10947 10.5364L9.3361 11.0164C9.61323 11.1248 9.61323 11.5143 9.3361 11.6227L8.10947 12.1017C7.88408 12.1899 7.70613 12.3676 7.61712 12.5911L7.13326 13.808C7.02396 14.0829 6.63136 14.0829 6.52207 13.808L6.0382 12.5911C5.94919 12.3676 5.77124 12.1899 5.54585 12.1017L4.31922 11.6227C4.0421 11.5143 4.0421 11.1248 4.31922 11.0164L5.54585 10.5364C5.77125 10.4481 5.94928 10.2706 6.0382 10.047L6.52207 8.83118Z" fill="#475069"/>
</svg>
